# xmcd
#
# Track frame offsets:
#	150
#	14619
#	33030
#	49407
#	65714
#	77361
#	93871
#	115326
#	135151
#	155429
#	171632
#	193512
#
# Disc length: 2873 seconds
# Revision: 0
# Processed by: cddbd v1.5.2PL0 Copyright (c) Steve Scherf et al.
# Submitted via: dBpowerAMP V12.0
#
DISCID=970b370c
DTITLE=Craig Bickhardt - Live At Sellersville Theater
DYEAR=2011
DGENRE=Country
TTITLE0=Prayers For You
TTITLE1=Even A Cowboy Can Dream
TTITLE2=The Real Game
TTITLE3=Donald And June
TTITLE4=A Day Well Spent
TTITLE5=Sugarcane Street
TTITLE6=Crazy Nightingale
TTITLE7=Men and Rivers
TTITLE8=Watching Life With The Sound Turned Down
TTITLE9=If He Came Back Again
TTITLE10=This Old House
TTITLE11=From Galway To Graceland
EXTD=
EXTT0=
EXTT1=
EXTT2=
EXTT3=
EXTT4=
EXTT5=
EXTT6=
EXTT7=
EXTT8=
EXTT9=
EXTT10=
EXTT11=
PLAYORDER=
